<svg width="1665" height="1400" viewBox="0 0 1665 1400" fill="none" xmlns="http://www.w3.org/2000/svg">
<g opacity="0.05">
<g clip-path="url(#clip0_39_1295)">
<g clip-path="url(#clip1_39_1295)">
<rect width="1" height="1601" transform="translate(31 -100.5)" fill="#fff"/>
</g>
<g clip-path="url(#clip2_39_1295)">
<rect width="1" height="1601" transform="translate(32 -100.5)" fill="#fff"/>
<rect width="1" height="1601" transform="translate(63 -100.5)" fill="#fff"/>
</g>
<g clip-path="url(#clip3_39_1295)">
<rect width="1" height="1601" transform="translate(64 -100.5)" fill="#fff"/>
<rect width="1" height="1601" transform="translate(95 -100.5)" fill="#fff"/>
</g>
<g clip-path="url(#clip4_39_1295)">
<rect width="1" height="1601" transform="translate(96 -100.5)" fill="#fff"/>
<rect width="1" height="1601" transform="translate(127 -100.5)" fill="#fff"/>
</g>
<g clip-path="url(#clip5_39_1295)">
<rect width="1" height="1601" transform="translate(128 -100.5)" fill="#fff"/>
<rect width="1" height="1601" transform="translate(159 -100.5)" fill="#fff"/>
</g>
<g clip-path="url(#clip6_39_1295)">
<rect width="1" height="1601" transform="translate(160 -100.5)" fill="#fff"/>
<rect width="1" height="1601" transform="translate(191 -100.5)" fill="#fff"/>
</g>
<g clip-path="url(#clip7_39_1295)">
<rect width="1" height="1601" transform="translate(192 -100.5)" fill="#fff"/>
<rect width="1" height="1601" transform="translate(223 -100.5)" fill="#fff"/>
</g>
<g clip-path="url(#clip8_39_1295)">
<rect width="1" height="1601" transform="translate(224 -100.5)" fill="#fff"/>
<rect width="1" height="1601" transform="translate(255 -100.5)" fill="#fff"/>
</g>
<g clip-path="url(#clip9_39_1295)">
<rect width="1" height="1601" transform="translate(256 -100.5)" fill="#fff"/>
<rect width="1" height="1601" transform="translate(287 -100.5)" fill="#fff"/>
</g>
<g clip-path="url(#clip10_39_1295)">
<rect width="1" height="1601" transform="translate(288 -100.5)" fill="#fff"/>
<rect width="1" height="1601" transform="translate(319 -100.5)" fill="#fff"/>
</g>
<g clip-path="url(#clip11_39_1295)">
<rect width="1" height="1601" transform="translate(320 -100.5)" fill="#fff"/>
<rect width="1" height="1601" transform="translate(351 -100.5)" fill="#fff"/>
</g>
<g clip-path="url(#clip12_39_1295)">
<rect width="1" height="1601" transform="translate(352 -100.5)" fill="#fff"/>
<rect width="1" height="1601" transform="translate(383 -100.5)" fill="#fff"/>
</g>
<g clip-path="url(#clip13_39_1295)">
<rect width="1" height="1601" transform="translate(384 -100.5)" fill="#fff"/>
</g>
</g>
<g clip-path="url(#clip14_39_1295)">
<rect x="8" y="242.43" width="1649" height="1" fill="#fff"/>
<rect x="8" y="306.016" width="1649" height="1" fill="#fff"/>
<rect x="8" y="369.602" width="1649" height="1" fill="#fff"/>
<rect x="8" y="433.187" width="1649" height="1" fill="#fff"/>
<rect x="8" y="496.773" width="1649" height="1" fill="#fff"/>
<rect x="8" y="560.359" width="1649" height="1" fill="#fff"/>
<rect x="8" y="623.945" width="1649" height="1" fill="#fff"/>
<rect x="8" y="687.531" width="1649" height="1" fill="#fff"/>
<rect x="8" y="751.116" width="1649" height="1" fill="#fff"/>
<rect x="8" y="814.702" width="1649" height="1" fill="#fff"/>
<rect x="8" y="878.288" width="1649" height="1" fill="#fff"/>
<rect x="8" y="941.874" width="1649" height="1" fill="#fff"/>
<rect x="8" y="1005.46" width="1649" height="1" fill="#fff"/>
</g>
</g>
<g opacity="0.05">
<g clip-path="url(#clip15_39_1295)">
<g clip-path="url(#clip16_39_1295)">
<rect width="1" height="1601" transform="translate(1272 -100.5)" fill="#fff"/>
</g>
<g clip-path="url(#clip17_39_1295)">
<rect width="1" height="1601" transform="translate(1273 -100.5)" fill="#fff"/>
<rect width="1" height="1601" transform="translate(1304 -100.5)" fill="#fff"/>
</g>
<g clip-path="url(#clip18_39_1295)">
<rect width="1" height="1601" transform="translate(1305 -100.5)" fill="#fff"/>
<rect width="1" height="1601" transform="translate(1336 -100.5)" fill="#fff"/>
</g>
<g clip-path="url(#clip19_39_1295)">
<rect width="1" height="1601" transform="translate(1337 -100.5)" fill="#fff"/>
<rect width="1" height="1601" transform="translate(1368 -100.5)" fill="#fff"/>
</g>
<g clip-path="url(#clip20_39_1295)">
<rect width="1" height="1601" transform="translate(1369 -100.5)" fill="#fff"/>
<rect width="1" height="1601" transform="translate(1400 -100.5)" fill="#fff"/>
</g>
<g clip-path="url(#clip21_39_1295)">
<rect width="1" height="1601" transform="translate(1401 -100.5)" fill="#fff"/>
<rect width="1" height="1601" transform="translate(1432 -100.5)" fill="#fff"/>
</g>
<g clip-path="url(#clip22_39_1295)">
<rect width="1" height="1601" transform="translate(1433 -100.5)" fill="#fff"/>
<rect width="1" height="1601" transform="translate(1464 -100.5)" fill="#fff"/>
</g>
<g clip-path="url(#clip23_39_1295)">
<rect width="1" height="1601" transform="translate(1465 -100.5)" fill="#fff"/>
<rect width="1" height="1601" transform="translate(1496 -100.5)" fill="#fff"/>
</g>
<g clip-path="url(#clip24_39_1295)">
<rect width="1" height="1601" transform="translate(1497 -100.5)" fill="#fff"/>
<rect width="1" height="1601" transform="translate(1528 -100.5)" fill="#fff"/>
</g>
<g clip-path="url(#clip25_39_1295)">
<rect width="1" height="1601" transform="translate(1529 -100.5)" fill="#fff"/>
<rect width="1" height="1601" transform="translate(1560 -100.5)" fill="#fff"/>
</g>
<g clip-path="url(#clip26_39_1295)">
<rect width="1" height="1601" transform="translate(1561 -100.5)" fill="#fff"/>
<rect width="1" height="1601" transform="translate(1592 -100.5)" fill="#fff"/>
</g>
<g clip-path="url(#clip27_39_1295)">
<rect width="1" height="1601" transform="translate(1593 -100.5)" fill="#fff"/>
<rect width="1" height="1601" transform="translate(1624 -100.5)" fill="#fff"/>
</g>
<g clip-path="url(#clip28_39_1295)">
<rect width="1" height="1601" transform="translate(1625 -100.5)" fill="#fff"/>
</g>
</g>
</g>
<defs>
<clipPath id="clip0_39_1295">
<rect width="416" height="1400" fill="#fff"/>
</clipPath>
<clipPath id="clip1_39_1295">
<rect width="32" height="1601" fill="#fff" transform="translate(0 -100.5)"/>
</clipPath>
<clipPath id="clip2_39_1295">
<rect width="32" height="1601" fill="#fff" transform="translate(32 -100.5)"/>
</clipPath>
<clipPath id="clip3_39_1295">
<rect width="32" height="1601" fill="#fff" transform="translate(64 -100.5)"/>
</clipPath>
<clipPath id="clip4_39_1295">
<rect width="32" height="1601" fill="#fff" transform="translate(96 -100.5)"/>
</clipPath>
<clipPath id="clip5_39_1295">
<rect width="32" height="1601" fill="#fff" transform="translate(128 -100.5)"/>
</clipPath>
<clipPath id="clip6_39_1295">
<rect width="32" height="1601" fill="#fff" transform="translate(160 -100.5)"/>
</clipPath>
<clipPath id="clip7_39_1295">
<rect width="32" height="1601" fill="#fff" transform="translate(192 -100.5)"/>
</clipPath>
<clipPath id="clip8_39_1295">
<rect width="32" height="1601" fill="#fff" transform="translate(224 -100.5)"/>
</clipPath>
<clipPath id="clip9_39_1295">
<rect width="32" height="1601" fill="#fff" transform="translate(256 -100.5)"/>
</clipPath>
<clipPath id="clip10_39_1295">
<rect width="32" height="1601" fill="#fff" transform="translate(288 -100.5)"/>
</clipPath>
<clipPath id="clip11_39_1295">
<rect width="32" height="1601" fill="#fff" transform="translate(320 -100.5)"/>
</clipPath>
<clipPath id="clip12_39_1295">
<rect width="32" height="1601" fill="#fff" transform="translate(352 -100.5)"/>
</clipPath>
<clipPath id="clip13_39_1295">
<rect width="32" height="1601" fill="#fff" transform="translate(384 -100.5)"/>
</clipPath>
<clipPath id="clip14_39_1295">
<rect width="1665" height="800" fill="#fff" transform="translate(0 224.5)"/>
</clipPath>
<clipPath id="clip15_39_1295">
<rect width="416" height="1400" fill="#fff" transform="translate(1241)"/>
</clipPath>
<clipPath id="clip16_39_1295">
<rect width="32" height="1601" fill="#fff" transform="translate(1241 -100.5)"/>
</clipPath>
<clipPath id="clip17_39_1295">
<rect width="32" height="1601" fill="#fff" transform="translate(1273 -100.5)"/>
</clipPath>
<clipPath id="clip18_39_1295">
<rect width="32" height="1601" fill="#fff" transform="translate(1305 -100.5)"/>
</clipPath>
<clipPath id="clip19_39_1295">
<rect width="32" height="1601" fill="#fff" transform="translate(1337 -100.5)"/>
</clipPath>
<clipPath id="clip20_39_1295">
<rect width="32" height="1601" fill="#fff" transform="translate(1369 -100.5)"/>
</clipPath>
<clipPath id="clip21_39_1295">
<rect width="32" height="1601" fill="#fff" transform="translate(1401 -100.5)"/>
</clipPath>
<clipPath id="clip22_39_1295">
<rect width="32" height="1601" fill="#fff" transform="translate(1433 -100.5)"/>
</clipPath>
<clipPath id="clip23_39_1295">
<rect width="32" height="1601" fill="#fff" transform="translate(1465 -100.5)"/>
</clipPath>
<clipPath id="clip24_39_1295">
<rect width="32" height="1601" fill="#fff" transform="translate(1497 -100.5)"/>
</clipPath>
<clipPath id="clip25_39_1295">
<rect width="32" height="1601" fill="#fff" transform="translate(1529 -100.5)"/>
</clipPath>
<clipPath id="clip26_39_1295">
<rect width="32" height="1601" fill="#fff" transform="translate(1561 -100.5)"/>
</clipPath>
<clipPath id="clip27_39_1295">
<rect width="32" height="1601" fill="#fff" transform="translate(1593 -100.5)"/>
</clipPath>
<clipPath id="clip28_39_1295">
<rect width="32" height="1601" fill="#fff" transform="translate(1625 -100.5)"/>
</clipPath>
</defs>
</svg>
